<svg id="Layer_1" data-name="Layer 1" xmlns="http://www.w3.org/2000/svg" viewBox="0 0 1100.5 674.71"><defs><style>.cls-1{fill:#3f3d56;}.cls-2{fill:#d0cde1;}.cls-3{fill:#00b8ff;}.cls-4{opacity:0.1;isolation:isolate;}</style></defs><path class="cls-1" d="M1100.5,284.09h-1.86V233.18a29.46,29.46,0,0,0-29.47-29.47H961.3a29.47,29.47,0,0,0-29.47,29.47h0V512.5A29.47,29.47,0,0,0,961.3,542h107.87a29.46,29.46,0,0,0,29.47-29.47h0V320.33h1.86Z"/><path class="cls-2" d="M1092.37,234.91V513.83a22,22,0,0,1-22,22H962a22,22,0,0,1-22-22h0V234.91a22,22,0,0,1,22-22h13.15a10.47,10.47,0,0,0,5.75,13.63,10.58,10.58,0,0,0,3.93.77h61.8a10.44,10.44,0,0,0,9.68-14.4h14.08A22,22,0,0,1,1092.37,234.91Z"/><rect class="cls-3" x="953.17" y="348.71" width="126" height="34"/><path class="cls-1" d="M1076.85,383.71h-122a3,3,0,0,1-3-3v-30a3,3,0,0,1,3-3h122a3,3,0,0,1,3,3v30A3,3,0,0,1,1076.85,383.71Zm-122-34a1,1,0,0,0-1,1v30a1,1,0,0,0,1,1h122a1,1,0,0,0,1-1v-30a1,1,0,0,0-1-1Z"/><rect class="cls-1" x="959.85" y="374.71" width="16" height="2"/><rect class="cls-1" x="981.85" y="374.71" width="16" height="2"/><rect class="cls-1" x="1003.85" y="374.71" width="16" height="2"/><rect class="cls-1" x="1025.85" y="374.71" width="16" height="2"/><rect class="cls-1" x="1047.85" y="374.71" width="16" height="2"/><path class="cls-4" d="M1092.37,485.47v28.36a22,22,0,0,1-22,22H962a22,22,0,0,1-22-22h0V383.37Z"/><rect class="cls-2" x="121.85" y="440.51" width="473" height="232"/><path class="cls-4" d="M476.73,672.71H126a2,2,0,0,1-2-2v-228a2,2,0,0,1,2-2h4.44Z"/><rect class="cls-1" x="318.85" y="490.71" width="733" height="2"/><path class="cls-1" d="M550.59,4.32H341.1V0h-95V4.32H35.76A14.16,14.16,0,0,0,21.59,18.49h0V305.34a14.16,14.16,0,0,0,14.17,14.17H550.59a14.16,14.16,0,0,0,14.17-14.17V18.49A14.16,14.16,0,0,0,550.59,4.32Z"/><rect class="cls-2" x="40.59" y="29.36" width="505.17" height="284.98"/><circle class="cls-3" cx="292.74" cy="16.41" r="5.18"/><path class="cls-1" d="M190.85,135.71h-12a3,3,0,0,1-3-3v-12a3,3,0,0,1,3-3h12a3,3,0,0,1,3,3v12A3,3,0,0,1,190.85,135.71Zm-12-16a1,1,0,0,0-1,1v12a1,1,0,0,0,1,1h12a1,1,0,0,0,1-1v-12a1,1,0,0,0-1-1Z"/><rect class="cls-1" x="176.85" y="133.71" width="228" height="2"/><rect class="cls-3" x="351.85" y="183.71" width="53" height="16"/><path class="cls-1" d="M402.85,200.71h-49a3,3,0,0,1-3-3v-12a3,3,0,0,1,3-3h49a3,3,0,0,1,3,3v12A3,3,0,0,1,402.85,200.71Zm-49-16a1,1,0,0,0-1,1v12a1,1,0,0,0,1,1h49a1,1,0,0,0,1-1v-12a1,1,0,0,0-1-1Z"/><rect class="cls-3" x="715.85" y="237.7" width="100" height="70"/><path class="cls-1" d="M813.85,310.46h-96a4,4,0,0,1-4-4v-66a4,4,0,0,1,4-4h96a4,4,0,0,1,4,4v66A4,4,0,0,1,813.85,310.46Zm-96-70v66h96v-66Z"/><path class="cls-1" d="M802.85,238h-4a33,33,0,0,0-66,0h-4a37,37,0,0,1,74,0Z"/><path class="cls-1" d="M775.85,265.46a10,10,0,1,0-15.29,8.47v10.73a5.29,5.29,0,0,0,5.29,5.3h0a5.3,5.3,0,0,0,5.3-5.3h0V273.93A10,10,0,0,0,775.85,265.46Z"/><rect class="cls-1" x="284.35" y="562.71" width="16" height="2"/><rect class="cls-1" x="306.35" y="562.71" width="16" height="2"/><rect class="cls-1" x="328.35" y="562.71" width="16" height="2"/><rect class="cls-1" x="350.35" y="562.71" width="16" height="2"/><rect class="cls-1" x="372.35" y="562.71" width="16" height="2"/><path class="cls-1" d="M593.85,674.71h-469a4,4,0,0,1-4-4v-228a4,4,0,0,1,4-4h469a4,4,0,0,1,4,4v228A4,4,0,0,1,593.85,674.71Zm-469-232v228h469v-228Z"/><circle class="cls-1" cx="145.85" cy="470.71" r="6"/><circle class="cls-1" cx="166.85" cy="470.71" r="6"/><circle class="cls-1" cx="187.85" cy="470.71" r="6"/><path class="cls-1" d="M403.85,576.71h-135a3,3,0,0,1-3-3v-34a3,3,0,0,1,3-3h135a3,3,0,0,1,3,3v34A3,3,0,0,1,403.85,576.71Zm-135-38a1,1,0,0,0-1,1v34a1,1,0,0,0,1,1h135a1,1,0,0,0,1-1v-34a1,1,0,0,0-1-1Z"/><circle class="cls-3" cx="443.85" cy="556.51" r="18"/><path class="cls-1" d="M443.85,575.71a19,19,0,1,1,19-19h0A19,19,0,0,1,443.85,575.71Zm0-36a17,17,0,1,0,17,17A17,17,0,0,0,443.85,539.71Z"/><polygon class="cls-1" points="444.12 563.8 434.44 554.12 437.26 551.29 443.58 557.61 461.22 532.55 464.49 534.86 444.12 563.8"/><polygon class="cls-4" points="433.76 314.34 40.59 314.34 40.59 50.95 433.76 314.34"/><path class="cls-1" d="M579,309.15h-49.3V305.6a.7.7,0,0,0-.71-.7H512a.7.7,0,0,0-.71.7h0v3.55H500.77V305.6a.7.7,0,0,0-.71-.7h-16.9a.7.7,0,0,0-.7.7h0v3.55H471.89V305.6a.7.7,0,0,0-.7-.7H454.28a.7.7,0,0,0-.7.7h0v3.55H443V305.6a.7.7,0,0,0-.7-.7h-16.9a.7.7,0,0,0-.71.7h0v3.55H414.14V305.6a.7.7,0,0,0-.71-.7h-16.9a.7.7,0,0,0-.7.7h0v3.55H385.26V305.6a.7.7,0,0,0-.7-.7H367.65a.7.7,0,0,0-.7.7h0v3.55H356.38V305.6a.7.7,0,0,0-.7-.7H223.27a.7.7,0,0,0-.71.7h0v3.55H212V305.6a.7.7,0,0,0-.71-.7h-16.9a.7.7,0,0,0-.7.7h0v3.55H183.12V305.6a.7.7,0,0,0-.7-.7H165.51a.7.7,0,0,0-.7.7h0v3.55H154.25V305.6a.7.7,0,0,0-.71-.7h-16.9a.7.7,0,0,0-.71.7h0v3.55H125.37V305.6a.7.7,0,0,0-.71-.7h-16.9a.7.7,0,0,0-.7.7h0v3.55H96.49V305.6a.7.7,0,0,0-.7-.7H78.88a.7.7,0,0,0-.7.7h0v3.55H67.61V305.6a.7.7,0,0,0-.7-.7H50a.7.7,0,0,0-.71.7h0v3.55H16.9A16.91,16.91,0,0,0,0,326.06v7.64a16.9,16.9,0,0,0,16.9,16.9H579a16.9,16.9,0,0,0,16.9-16.9v-7.64A16.91,16.91,0,0,0,579,309.15Z"/><path class="cls-1" d="M424.85,217.71h-264a3,3,0,0,1-3-3v-110a3,3,0,0,1,3-3h264a3,3,0,0,1,3,3v110A3,3,0,0,1,424.85,217.71Zm-264-114a1,1,0,0,0-1,1v110a1,1,0,0,0,1,1h264a1,1,0,0,0,1-1v-110a1,1,0,0,0-1-1Z"/><path class="cls-1" d="M190.85,165.71h-12a3,3,0,0,1-3-3v-12a3,3,0,0,1,3-3h12a3,3,0,0,1,3,3v12A3,3,0,0,1,190.85,165.71Zm-12-16a1,1,0,0,0-1,1v12a1,1,0,0,0,1,1h12a1,1,0,0,0,1-1v-12a1,1,0,0,0-1-1Z"/><rect class="cls-1" x="176.85" y="163.71" width="228" height="2"/><rect class="cls-1" x="264.85" y="269.71" width="733" height="2"/><circle class="cls-1" cx="264.85" cy="269.71" r="14"/><circle class="cls-1" cx="997.85" cy="271.71" r="11"/><circle class="cls-1" cx="1051.85" cy="492.71" r="11"/><circle class="cls-1" cx="321.85" cy="492.71" r="11"/><rect class="cls-3" x="715.85" y="446.7" width="100" height="70"/><path class="cls-1" d="M813.85,519.46h-96a4,4,0,0,1-4-4v-66a4,4,0,0,1,4-4h96a4,4,0,0,1,4,4v66A4,4,0,0,1,813.85,519.46Zm-96-70v66h96v-66Z"/><path class="cls-1" d="M802.85,447h-4a33,33,0,1,0-66,0h-4a37,37,0,1,1,74,0Z"/><path class="cls-1" d="M775.85,474.46a10,10,0,1,0-15.29,8.47v10.73a5.29,5.29,0,0,0,5.29,5.3h0a5.3,5.3,0,0,0,5.3-5.3h0V482.93A10,10,0,0,0,775.85,474.46Z"/></svg>